Genre:Action | Drama | Sci-Fi
Language:English
IMDb:http://www.imdb.com/title/tt0433035/
Source:1080p BluRay x264-HDChina Thanks!

Format : MPEG-4
Format profile : Base Media
Codec ID : isom
File size : 2.60 GiB
Duration : 2h 6mn
Overall bit rate : 2 936 Kbps

Video
ID : 1
Format : AVC
Format/Info : Advanced Video Codec
Format profile : High@L5.1
Format settings, CABAC : Yes
Format settings, ReFrames : 2 frames
Codec ID : avc1
Codec ID/Info : Advanced Video Coding
Duration : 2h 6mn
Bit rate mode : Variable
Bit rate : 2 500 Kbps
Maximum bit rate : 13.5 Mbps
Width : 1 280 pixels
Height : 544 pixels
Display aspect ratio : 2.35:1
Frame rate mode : Constant
Frame rate : 23.976 fps
Color space : YUV
Chroma subsampling : 4:2:0
Bit depth : 8 bits
Scan type : Progressive
Bits/(Pixel*Frame) : 0.150
Stream size : 2.20 GiB (85%)
Writing library : x264

Audio
ID : 2
Format : AAC
Format/Info : Advanced Audio Codec
Format version : Version 4
Format profile : LC
Format settings, SBR : No
Codec ID : 40
Duration : 2h 6mn
Bit rate mode : Variable
Bit rate : 445 Kbps
Maximum bit rate : 535 Kbps
Channel(s) : 6 channels
Channel positions : Front: L C R, Side: L R, LFE
Sampling rate : 48.0 KHz
Stream size : 403 MiB (15%)


Plot:
Set in the near future, where robot boxing is a top sport, a struggling promoter feels he's found a champion in a discarded robot. During his hopeful rise to the top, he discovers he has an 11-year-old son who wants to know his father

